<svg width="190" height="190" viewBox="0 0 190 190" fill="none" xmlns="http://www.w3.org/2000/svg">
<rect width="190" height="190" fill="#181818"/>
<path d="M73.0807 42.0978C73.0423 41.9014 72.7894 41.844 72.6717 42.0052C71.7692 43.2437 68.6713 47.1949 62.124 52.8074C54.2564 59.5524 51.02 63.3504 51.8241 68.3746C51.832 68.4253 51.9026 68.4324 51.9209 68.3851C52.1446 67.8035 53.2036 65.8805 58.2017 61.1606C64.5754 55.5527 70.3342 49.6446 70.3342 49.6446C70.3342 49.6446 73.8794 46.2142 73.0807 42.0978Z" fill="#F2EAE2"/>
<path d="M30.8645 84.8469C34.4217 83.9019 36.8243 87.4922 37.0589 90.3895C37.293 93.2868 33.719 94.6094 31.9611 94.7987C30.2035 94.9875 26.6292 94.1686 25.3987 91.9013C25.3987 91.9013 27.3073 85.7914 30.8645 84.8469ZM74.3816 53.8576C74.3816 53.8576 74.1763 52.6769 73.6781 52.5509C73.1802 52.4249 72.9912 53.3205 73.0141 53.8576C73.0141 53.8576 73.7289 63.8568 65.202 70.1501C56.3105 75.9795 54.812 82.8313 54.812 82.8313C54.812 82.8313 52.7028 88.1219 51.5306 101.726C50.3589 115.332 45.0462 123.058 39.4999 123.898C33.9532 124.737 26.5708 122.685 24.1101 103.104C24.0926 102.985 24.078 102.858 24.0668 102.726C26.3116 105.937 29.5343 106.511 33.3281 105.338C39.0313 103.574 40.1246 97.8639 40.672 89.8017C41.2187 81.7394 37.8596 73.4255 32.0784 73.3417C26.8787 73.266 24.6497 79.5752 24.2542 80.8451L24.2517 80.8229C30.1693 57.7159 41.7339 50.7853 41.7339 50.7853L41.3747 49.2177C33.1332 53.2912 27.0802 64.9035 24.696 70.4859C23.2343 73.6914 19.7501 86.5555 21.463 95.7064C21.4534 96.5635 21.473 97.0659 21.473 97.0659C21.473 97.0659 22.3522 130.952 36.7659 134.605C51.1793 138.258 53.0541 112.938 53.0541 112.938C53.0541 112.938 54.2258 96.499 56.5695 91.9013C58.093 88.1219 58.988 86.3516 65.4337 82.0053C71.8788 77.6593 73.62 72.7535 73.62 72.7535C73.62 72.7535 76.9594 65.1949 74.3816 53.8576Z" fill="#F2EAE2"/>
<path d="M115.63 115.815C115.63 115.815 115.191 121.232 109.667 121.735C104.143 122.239 102.322 118.019 102.071 114.618C101.879 112.007 101.966 106.502 104.422 102.83C106.333 99.9723 110.178 99.2137 112.972 101.211C115.772 103.213 118.045 106.926 118.831 109.579C119.93 112.571 120.756 115.626 120.84 125.955C120.924 136.285 116.441 155.432 102.006 164.376C87.5713 173.32 73.8869 167.903 68.6139 159.841C63.3408 151.779 61.7089 137.923 65.852 119.531C65.852 119.531 60.9899 122.136 56.7442 127.837C56.6382 127.98 56.4838 128.086 56.3086 128.11C55.9665 128.158 55.4833 127.93 55.4632 126.27C55.4315 123.688 55.2433 118.334 59.2607 113.988C62.8039 110.154 68.2029 105.93 70.2458 105.807C70.5842 105.787 70.8446 106.101 70.7649 106.432C69.8911 110.057 64.21 135.051 70.3714 148C77.0252 161.983 93.7226 156.692 93.7226 156.692C93.7226 156.692 114.312 150.52 117.576 123.31C117.827 119.741 116.613 116.843 115.63 115.815Z" fill="#F2EAE2"/>
<path d="M168.991 100.617C169.081 96.7134 168.448 93.0067 168.239 91.618C167.42 85.6533 166.514 83.317 165.442 81.0356C164.427 78.4624 161.838 74.963 158.875 73.2145C155.917 71.4707 152.154 72.5643 150.499 75.5792C148.373 79.4521 148.767 84.9437 149.186 87.5277C149.734 90.8936 151.915 94.9381 157.374 93.9504C162.832 92.9632 162.798 87.5286 162.798 87.5286C163.553 88.1909 164.502 89.772 165.018 91.9023C165.018 91.9023 167.054 100.236 159.919 106.282C156.752 108.746 152.311 108.578 150.14 101.796C149.959 101.228 149.161 101.222 148.972 101.787C148.6 102.905 148.344 105.031 148.855 109.054C149.855 116.927 149.604 121.084 146.716 123.037C143.828 124.99 140.564 122.785 138.869 118.25C138.347 116.717 137.07 112.119 134.936 112.119C132.802 112.119 132.76 116.99 132.969 120.811C133.178 124.632 133.388 138.783 127.278 147.853C121.38 156.608 115.503 161.254 100.933 167.764C100.586 167.918 100.709 168.439 101.087 168.42C107.277 168.111 127.99 166.063 134.476 152.514C136.987 147.223 136.735 134.021 136.735 134.021C136.735 134.021 136.652 128.873 136.233 125.052C136.233 125.052 136.15 123.918 136.777 123.667C136.777 123.667 139.134 132.863 144.407 134.815C149.68 136.768 153.496 134.437 153.809 126.816C154.029 121.966 153.433 119.101 153.213 117.652C153.213 117.652 153.18 117.451 153.148 117.191C153.146 117.168 153.143 117.142 153.139 117.113C153.135 117.083 153.132 117.053 153.129 117.022C153.101 116.649 153.326 116.795 153.56 117.038C153.655 117.136 153.738 117.245 153.821 117.355C153.888 117.446 153.963 117.539 154.046 117.632L154.046 117.633C154.389 118.018 154.865 118.403 155.536 118.691C156.704 119.194 158.22 119.375 159.741 118.913C160.333 118.734 160.926 118.455 161.499 118.062C169.162 113.461 168.991 100.617 168.991 100.617Z" fill="#F2EAE2"/>
<path fill-rule="evenodd" clip-rule="evenodd" d="M147.535 53.2272L157.609 56.2395L154.273 67.4689L144.2 64.4565L147.535 53.2272Z" fill="#F2EAE2"/>
<path fill-rule="evenodd" clip-rule="evenodd" d="M138.835 90.0239L148.908 93.0362L145.573 104.266L135.499 101.253L138.835 90.0239Z" fill="#F2EAE2"/>
<path fill-rule="evenodd" clip-rule="evenodd" d="M43.0919 39.6783L53.3754 41.8625L50.957 53.3259L40.6735 51.1416L43.0919 39.6783Z" fill="#F2EAE2"/>
<path fill-rule="evenodd" clip-rule="evenodd" d="M55.7933 30.3997L66.0775 32.584L63.6593 44.0469L53.3754 41.8625L55.7933 30.3997Z" fill="#F2EAE2"/>
<path d="M114.52 65.3296C114.525 63.9752 113.791 64.3963 113.791 64.3963C106.184 74.0187 104.314 71.1955 104.314 71.1955C104.461 63.4493 102.743 52.6279 98.2873 45.5754C91.0873 33.5093 82.5563 26.3346 78.7115 23.4838C77.9826 22.9433 76.9753 23.5914 77.1626 24.4811L86.1552 67.2317C86.1552 67.2317 86.5533 69.0793 87.8719 68.7583C87.8719 68.7583 88.8545 68.4493 88.6242 66.5597C88.6555 66.0527 85.9879 51.0063 84.1586 40.7706C84.1001 40.4424 84.4778 40.2155 84.7395 40.421C94.0283 47.7142 98.8895 59.8648 100.272 65.0993C101.696 70.4942 101.713 81.4898 101.713 81.4898L101.682 82.6122C101.682 82.6122 102.113 83.6753 103.689 82.9685C99.7107 93.2315 95.6965 91.8794 95.6965 91.8794C95.6965 91.8794 93.3469 92.0674 92.015 85.5765C90.9976 80.631 89.2939 77.8438 89.2939 77.8438C89.2939 77.8438 85.2264 70.34 84.0943 87.4472C82.9623 104.555 82.1974 106.524 82.1974 106.524C82.1974 106.524 80.949 115.548 72.8243 128.054C64.6996 140.562 46.5376 145.738 43.6759 145.912C40.8139 146.086 41.7181 146.699 41.7181 146.699C61.2688 151.347 75.3049 143.16 80.1808 133.127C86.9092 119.616 86.6894 101.422 86.6973 96.4654C86.7056 91.5089 87.132 88.1184 87.6762 88.133C88.2199 88.1477 89.1162 90.6083 90.0137 94.585C90.9109 98.5617 92.5774 101.96 96.2473 102.48C99.9172 103 103.576 100.831 107.016 91.2632C110.456 81.6958 114.588 76.7674 114.588 76.7674C114.928 71.1062 114.515 66.6841 114.52 65.3296Z" fill="#F2EAE2"/>
<path d="M76.6338 91.6682C74.4336 92.8012 70.2559 95.4083 66.276 100.405C65.771 101.04 64.7551 100.745 64.6779 99.9364C64.4116 97.1542 64.2513 92.3912 65.7756 89.375C67.8474 85.2743 75.672 80.1681 78.797 78.814C79.15 78.6608 79.5434 78.9153 79.5502 79.3014C79.5756 80.755 79.5093 84.2159 78.6013 89.0166C78.386 90.1563 77.662 91.1382 76.6338 91.6682Z" fill="#F2EAE2"/>
<path d="M123.728 57.7838C113.426 37.2593 102.65 25.2874 98.6278 21.2081C98.1434 20.7161 97.3188 21.165 97.4636 21.8411L101.765 41.9285L105.904 61.6053C105.904 61.6053 106.302 63.4529 107.62 63.1313C107.62 63.1313 108.604 62.8227 108.373 60.9332C108.397 60.5471 106.856 51.7346 105.313 43.0335C105.259 42.7316 105.64 42.5549 105.833 42.7927C110.778 48.908 133.436 78.6702 127.886 104.162C122.948 127.298 104.833 132.737 104.833 132.737C104.833 132.737 88.136 138.027 81.4822 124.045C76.8488 115.873 76.533 103.042 77.2044 93.3686C76.3485 93.7123 75.3166 94.4626 74.7262 94.8398C74.6532 95.5646 74.6235 95.8694 74.6235 95.8694C72.2551 114.975 74.8076 128.79 79.7247 135.886C84.9977 143.948 98.6817 149.365 113.117 140.421C126.054 132.405 130.997 116.193 131.823 105.478C131.823 105.478 136.722 83.6709 123.728 57.7838Z" fill="#F2EAE2"/>
<path d="M98.0087 119.11C98.0087 119.11 98.0351 122.641 96.474 122.986C94.9127 123.332 93.4839 121.393 93.3779 118.128C93.1397 114.384 94.9656 107.029 94.9656 107.029C94.9656 107.029 94.6481 106.047 93.8277 108.409C93.0078 110.773 91.9224 116.391 92.2404 120.897C92.5579 125.403 94.8337 126.783 94.8337 126.783C94.8337 126.783 97.2414 128.642 98.353 125.748C99.4642 122.854 98.4853 118.18 98.4853 118.18C98.4853 118.18 98.1239 117.678 98.0087 119.11Z" fill="#F2EAE2"/>
<path d="M122.131 92.4238C122.131 92.4238 122.156 95.9373 120.604 96.2803C119.051 96.6236 117.629 94.6955 117.523 91.4466C117.287 87.7223 119.103 80.4057 119.103 80.4057C119.103 80.4057 118.787 79.4285 117.971 81.779C117.155 84.1299 116.076 89.7194 116.392 94.202C116.708 98.684 118.972 100.057 118.972 100.057C118.972 100.057 121.367 101.906 122.473 99.0273C123.578 96.1484 122.605 91.4993 122.605 91.4993C122.605 91.4993 122.245 90.999 122.131 92.4238Z" fill="#F2EAE2"/>
<path d="M142.134 69.8652C142.134 69.8652 142.162 73.5766 140.522 73.9391C138.881 74.3021 137.379 72.2647 137.268 68.8328C137.017 64.8984 138.936 57.1689 138.936 57.1689C138.936 57.1689 138.602 56.1364 137.741 58.6201C136.878 61.1033 135.738 67.0081 136.072 71.7431C136.406 76.4785 138.797 77.9296 138.797 77.9296C138.797 77.9296 141.328 79.8828 142.496 76.8414C143.664 73.7996 142.635 68.8884 142.635 68.8884C142.635 68.8884 142.255 68.3597 142.134 69.8652Z" fill="#F2EAE2"/>
<path d="M122.718 35.3619C122.718 35.3619 122.739 38.1617 121.501 38.4355C120.264 38.7093 119.131 37.1723 119.047 34.5832C118.858 31.615 120.306 25.7836 120.306 25.7836C120.306 25.7836 120.054 25.0048 119.404 26.8785C118.753 28.7521 117.893 33.2069 118.145 36.7792C118.397 40.351 120.201 41.4459 120.201 41.4459C120.201 41.4459 122.11 42.9196 122.991 40.6248C123.872 38.3304 123.096 34.625 123.096 34.625C123.096 34.625 122.809 34.2264 122.718 35.3619Z" fill="#F2EAE2"/>
<path d="M43.6853 111.64C43.6853 111.64 43.3874 114.424 42.1269 114.555C40.8659 114.685 39.9153 113.028 40.1269 110.446C40.2767 107.476 42.378 101.848 42.378 101.848C42.378 101.848 42.2166 101.046 41.3579 102.833C40.4982 104.619 39.1372 108.947 38.9806 112.524C38.8242 116.102 40.492 117.396 40.492 117.396C40.492 117.396 42.2207 119.079 43.3574 116.9C44.4936 114.722 44.1444 110.952 44.1444 110.952C44.1444 110.952 43.9052 110.523 43.6853 111.64Z" fill="#F2EAE2"/>
<path d="M48.3874 73.8286C48.3874 73.8286 48.0895 76.6124 46.8289 76.7426C45.568 76.8728 44.6174 75.2161 44.8285 72.634C44.9787 69.6639 47.0801 64.0363 47.0801 64.0363C47.0801 64.0363 46.9186 63.2336 46.0595 65.0205C45.2003 66.8072 43.8392 71.1343 43.6827 74.7119C43.5262 78.2901 45.194 79.5843 45.194 79.5843C45.194 79.5843 46.9228 81.267 48.0595 79.0885C49.1957 76.9093 48.8464 73.1393 48.8464 73.1393C48.8464 73.1393 48.6068 72.7107 48.3874 73.8286Z" fill="#F2EAE2"/>
<path d="M130.164 38.6762C130.164 38.6762 129.725 40.9439 133.302 41.6363C136.881 42.3297 139.831 42.6446 140.396 45.7307C140.647 47.0534 139.852 48.0612 139.852 48.0612C139.852 48.0612 136.714 46.4445 134.328 45.9823C131.943 45.521 126.837 45.521 128.302 38.6762C129.767 31.832 133.868 31.9998 133.868 31.9998C133.868 31.9998 137.55 31.8738 137.3 39.4739C137.048 47.0747 132.298 54.9268 132.298 54.9268C132.298 54.9268 124.64 68.5945 117.861 75.334C117.861 75.334 116.71 76.0689 117.715 74.6202C118.719 73.1716 132.361 54.8008 134.809 41.1959C134.809 41.1959 135.29 37.5215 133.345 36.8708C131.399 36.2198 130.164 38.6762 130.164 38.6762Z" fill="#F2EAE2"/>
</svg>
